<svg width="1080" height="644" viewBox="0 0 1080 644" fill="none" xmlns="http://www.w3.org/2000/svg">
<rect width="1080" height="644" fill="white"/>
<g clip-path="url(#clip0_1237_90)">
<path d="M541.122 526.904C668.624 526.904 771.984 423.607 771.984 296.183C771.984 168.759 668.624 65.4619 541.122 65.4619C413.62 65.4619 310.26 168.759 310.26 296.183C310.26 423.607 413.62 526.904 541.122 526.904Z" stroke="url(#paint0_linear_1237_90)" stroke-width="1.294"/>
<path d="M733.705 225.23C737.808 217.917 736.718 204.64 727.276 189.47C717.853 174.33 700.154 157.394 671.261 142.858C644.998 129.647 618.346 127.084 597.099 130.217C586.475 131.783 577.214 134.772 570.033 138.557C562.843 142.348 557.782 146.913 555.493 151.606C552.172 158.422 553.874 165.282 557.716 172.045C560.735 177.357 565.032 182.537 569.164 187.517C570.306 188.894 571.436 190.257 572.522 191.601L572.168 191.882L572.522 191.602C581.704 202.972 594.28 214.675 610.161 223.322C632.214 235.338 652.372 237.282 674.415 239.407L676.315 239.59C691.451 241.053 703.689 241.249 713.208 239.177C722.703 237.11 729.464 232.793 733.705 225.23Z" stroke="url(#paint1_linear_1237_90)" stroke-width="1.002"/>
<path d="M843.463 284.99C822.458 295.403 794.581 282.014 794.581 282.014C794.581 282.014 800.776 251.749 821.791 241.35C842.796 230.937 870.662 244.311 870.662 244.311C870.662 244.311 864.466 274.577 843.463 284.99Z" fill="url(#paint2_linear_1237_90)"/>
<path d="M246.839 361.093C274.283 377.531 313.657 362.335 313.657 362.335C313.657 362.335 308.509 320.493 281.048 304.073C253.604 287.635 214.246 302.812 214.246 302.812C214.246 302.812 219.395 344.655 246.839 361.093Z" fill="url(#paint3_linear_1237_90)"/>
<path d="M802.134 203.754C795.8 203.754 790.666 208.885 790.666 215.215C790.666 221.545 795.8 226.676 802.134 226.676C808.468 226.676 813.603 221.545 813.603 215.215C813.603 208.885 808.468 203.754 802.134 203.754Z" fill="#FC4706"/>
<path d="M370.175 267.243C363.049 267.243 357.272 273.016 357.272 280.138C357.272 287.26 363.049 293.033 370.175 293.033C377.3 293.033 383.077 287.26 383.077 280.138C383.077 273.016 377.3 267.243 370.175 267.243Z" fill="#FC4706"/>
<path d="M283.736 215.094C277.798 215.094 272.984 210.283 272.984 204.349C272.984 198.414 277.798 193.603 283.736 193.603C289.674 193.603 294.488 198.414 294.488 204.349C294.488 210.283 289.674 215.094 283.736 215.094Z" fill="#FC4706"/>
<path d="M703.776 265.24C701.005 265.24 698.758 262.995 698.758 260.225C698.758 257.455 701.005 255.21 703.776 255.21C706.547 255.21 708.794 257.455 708.794 260.225C708.794 262.995 706.547 265.24 703.776 265.24Z" fill="#FC4706"/>
<path d="M732.733 490.424C729.17 490.424 726.282 487.537 726.282 483.976C726.282 480.415 729.17 477.529 732.733 477.529C736.296 477.529 739.185 480.415 739.185 483.976C739.185 487.537 736.296 490.424 732.733 490.424Z" fill="#E1E4E5"/>
<path d="M281.813 426.344C276.667 426.344 272.495 422.175 272.495 417.032C272.495 411.889 276.667 407.72 281.813 407.72C286.959 407.72 291.131 411.889 291.131 417.032C291.131 422.175 286.959 426.344 281.813 426.344Z" fill="#E1E4E5"/>
<path d="M389.574 186.174C385.657 186.174 382.482 183.001 382.482 179.086C382.482 175.172 385.657 171.999 389.574 171.999C393.491 171.999 396.666 175.172 396.666 179.086C396.666 183.001 393.491 186.174 389.574 186.174Z" fill="#E1E4E5"/>
<path d="M733.894 188.28C729.539 188.28 726.009 184.752 726.009 180.4C726.009 176.048 729.539 172.521 733.894 172.521C738.248 172.521 741.778 176.048 741.778 180.4C741.778 184.752 738.248 188.28 733.894 188.28Z" fill="#E1E4E5"/>
<path d="M310.004 267.992C311.016 271.767 308.774 275.647 304.997 276.658C301.22 277.67 297.338 275.429 296.326 271.655C295.314 267.88 297.555 264 301.332 262.988C305.109 261.977 308.992 264.217 310.004 267.992Z" fill="#E1E4E5"/>
<path d="M482.959 129.039C477.757 129.039 473.539 124.824 473.539 119.625C473.539 114.426 477.757 110.211 482.959 110.211C488.162 110.211 492.379 114.426 492.379 119.625C492.379 124.824 488.162 129.039 482.959 129.039Z" fill="#E1E4E5"/>
<path d="M783.341 366.041C779.34 366.041 776.096 363.448 776.096 360.248C776.096 357.048 779.34 354.455 783.341 354.455C787.343 354.455 790.587 357.048 790.587 360.248C790.587 363.448 787.343 366.041 783.341 366.041Z" fill="#E1E4E5"/>
<path d="M660.913 115.379C663.02 123.235 658.354 131.31 650.493 133.415C642.632 135.52 634.552 130.858 632.446 123.002C630.339 115.146 635.004 107.07 642.866 104.965C650.727 102.86 658.807 107.522 660.913 115.379Z" fill="#E1E4E5"/>
<path d="M838.288 320.239H838.477C839.599 336.133 851.427 336.378 851.427 336.378C851.427 336.378 838.385 336.632 838.385 354.997C838.385 336.632 825.343 336.378 825.343 336.378C825.343 336.378 837.165 336.133 838.288 320.239ZM361.894 474.753H362.062C363.058 489.138 373.553 489.359 373.553 489.359C373.553 489.359 361.98 489.59 361.98 506.211C361.98 489.59 350.408 489.359 350.408 489.359C350.408 489.359 360.899 489.138 361.894 474.753Z" fill="#E1E4E5"/>
<path d="M727.17 475.98C633.668 489.328 446.664 489.328 353.163 476.288M433.307 430.668C486.736 417.319 593.596 417.319 647.025 430.359M473.379 393.92C473.379 353.872 533.488 300.094 533.488 265.768C533.488 242.883 484.887 272.442 473.379 272.442C461.872 272.442 458.172 270.535 446.664 259.093C419.625 232.207 493.471 164.244 540.166 152.3C555.445 148.391 546.357 105.577 553.524 105.577C576.54 105.577 626.989 152.3 626.989 205.696C626.989 299.141 606.953 340.523 606.953 393.92" stroke="#FC4706" stroke-width="29.393"/>
</g>
<path d="M361.184 555.096V543.48C361.184 542.776 360.992 542.264 360.608 541.944C360.224 541.56 359.616 541.368 358.784 541.368H355.616V529.368H363.872C368.992 529.368 372.608 530.456 374.72 532.632C376.896 534.808 377.984 537.688 377.984 541.272V555.096H361.184ZM361.184 576.888V553.848H377.984V579.096C377.984 582.68 376.896 585.56 374.72 587.736C372.608 589.912 368.992 591 363.872 591H355.616V579H358.784C359.616 579 360.224 578.84 360.608 578.52C360.992 578.136 361.184 577.592 361.184 576.888ZM352.352 543.48V555.096H335.552V541.272C335.552 537.688 336.608 534.808 338.72 532.632C340.896 530.456 344.544 529.368 349.664 529.368H357.92V541.368H354.752C353.92 541.368 353.312 541.56 352.928 541.944C352.544 542.264 352.352 542.776 352.352 543.48ZM352.352 553.848V576.888C352.352 577.592 352.544 578.136 352.928 578.52C353.312 578.84 353.92 579 354.752 579H357.92V591H349.664C344.544 591 340.896 589.912 338.72 587.736C336.608 585.56 335.552 582.68 335.552 579.096V553.848H352.352ZM408.284 566.136H424.604V579.096C424.604 582.68 423.612 585.56 421.628 587.736C419.644 589.912 416.38 591 411.836 591H410.108C407.1 591 404.828 590.2 403.292 588.6C401.82 587 401.084 584.856 401.084 582.168V573.528H401.66V576.12C401.66 577.144 401.884 577.88 402.332 578.328C402.78 578.776 403.42 579 404.252 579H405.884C406.716 579 407.324 578.84 407.708 578.52C408.092 578.136 408.284 577.592 408.284 576.888V566.136ZM424.604 567.96H408.284V557.208C408.284 556.504 408.092 555.992 407.708 555.672C407.324 555.288 406.716 555.096 405.884 555.096H404.252C403.42 555.096 402.78 555.32 402.332 555.768C401.884 556.216 401.66 556.952 401.66 557.976V560.568H401.084V551.928C401.084 549.24 401.82 547.096 403.292 545.496C404.828 543.896 407.1 543.096 410.108 543.096H411.836C416.38 543.096 419.644 544.184 421.628 546.36C423.612 548.536 424.604 551.416 424.604 555V567.96ZM385.34 526.776H401.66V581.88H401.372V591H385.34V526.776ZM447.598 591H431.278V543.096H447.598V591ZM430.99 538.296V526.776H447.886V538.296H430.99ZM474.496 529.368H491.296V591H474.496V529.368ZM480.064 591V579H510.4V591H480.064ZM529.606 567.96H513.286V555C513.286 551.416 514.278 548.536 516.262 546.36C518.246 544.184 521.51 543.096 526.054 543.096H527.782C530.79 543.096 533.03 543.896 534.502 545.496C536.038 547.096 536.806 549.24 536.806 551.928V560.568H536.23V557.976C536.23 556.952 536.006 556.216 535.558 555.768C535.174 555.32 534.534 555.096 533.638 555.096H532.006C531.174 555.096 530.566 555.288 530.182 555.672C529.798 555.992 529.606 556.504 529.606 557.208V567.96ZM552.55 591H536.23V552.216H536.518V543.096H552.55V591ZM513.286 566.136H529.606V576.888C529.606 577.592 529.798 578.136 530.182 578.52C530.566 578.84 531.174 579 532.006 579H533.638C534.534 579 535.174 578.776 535.558 578.328C536.006 577.88 536.23 577.144 536.23 576.12V573.528H536.806V582.168C536.806 584.856 536.038 587 534.502 588.6C533.03 590.2 530.79 591 527.782 591H526.054C521.51 591 518.246 589.912 516.262 587.736C514.278 585.56 513.286 582.68 513.286 579.096V566.136ZM588.024 542.616V556.824H582.552C578.52 556.824 576.504 559 576.504 563.352V565.944H575.928V553.368C575.928 551.192 576.344 549.304 577.176 547.704C578.008 546.104 579.224 544.856 580.824 543.96C582.424 543.064 584.344 542.616 586.584 542.616H588.024ZM576.504 591H560.184V543.096H576.216V554.136L576.504 552.216V591ZM607.7 567.96H591.38V555C591.38 551.416 592.372 548.536 594.356 546.36C596.34 544.184 599.604 543.096 604.148 543.096H605.876C608.884 543.096 611.124 543.896 612.596 545.496C614.132 547.096 614.9 549.24 614.9 551.928V560.568H614.324V557.976C614.324 556.952 614.1 556.216 613.652 555.768C613.268 555.32 612.628 555.096 611.732 555.096H610.1C609.268 555.096 608.66 555.288 608.276 555.672C607.892 555.992 607.7 556.504 607.7 557.208V567.96ZM630.644 591H614.324V552.216H614.612V543.096H630.644V591ZM591.38 566.136H607.7V576.888C607.7 577.592 607.892 578.136 608.276 578.52C608.66 578.84 609.268 579 610.1 579H611.732C612.628 579 613.268 578.776 613.652 578.328C614.1 577.88 614.324 577.144 614.324 576.12V573.528H614.9V582.168C614.9 584.856 614.132 587 612.596 588.6C611.124 590.2 608.884 591 605.876 591H604.148C599.604 591 596.34 589.912 594.356 587.736C592.372 585.56 591.38 582.68 591.38 579.096V566.136ZM650.662 543.096L656.518 573.816L662.278 543.096H678.502L666.214 591H646.726L634.438 543.096H650.662ZM696.836 556.44V577.656C696.836 578.36 697.028 578.904 697.412 579.288C697.796 579.608 698.404 579.768 699.236 579.768H702.02V591H695.492C690.372 591 686.724 589.912 684.548 587.736C682.436 585.56 681.38 582.68 681.38 579.096V555C681.38 551.416 682.436 548.536 684.548 546.36C686.724 544.184 690.372 543.096 695.492 543.096H701.924V554.328H699.236C698.404 554.328 697.796 554.52 697.412 554.904C697.028 555.224 696.836 555.736 696.836 556.44ZM705.86 569.208V556.44C705.86 555.736 705.668 555.224 705.284 554.904C704.9 554.52 704.292 554.328 703.46 554.328H701.444V543.096H707.204C712.324 543.096 715.94 544.184 718.052 546.36C720.228 548.536 721.316 551.416 721.316 555V569.208H705.86ZM705.86 577.464V574.776H721.316V579.096C721.316 582.68 720.228 585.56 718.052 587.736C715.94 589.912 712.324 591 707.204 591H701.444V579.768H703.46C704.292 579.768 704.9 579.576 705.284 579.192C705.668 578.744 705.86 578.168 705.86 577.464ZM721.316 562.488V571.32H685.316V562.488H721.316ZM743.848 591H727.528V526.776H743.848V591Z" fill="#232323"/>
<circle cx="75.5" cy="74.5" r="56.5" fill="#FC4706"/>
<path d="M55.6409 56.5405C51.9589 53.2081 46.1497 53.4628 43.8319 57.8547C41.9401 61.4394 40.6577 65.3374 40.0596 69.3898C39.0208 76.4273 40.0923 83.6147 43.1384 90.0432C46.1845 96.4717 51.0685 101.853 57.1727 105.505C63.2769 109.158 70.3273 110.919 77.4321 110.565C84.537 110.21 91.3773 107.757 97.088 103.516C102.799 99.274 107.123 93.4341 109.515 86.7345C111.907 80.035 112.258 72.7766 110.525 65.8774C109.527 61.9045 107.863 58.1534 105.624 54.7746C102.881 50.6349 97.0752 50.9592 93.7428 54.6412V54.6412C90.4105 58.3232 90.9907 64.0363 92.6243 68.7259C92.7995 69.2287 92.9527 69.7403 93.0831 70.2596C93.9498 73.7092 93.7742 77.3384 92.5783 80.6882C91.3824 84.038 89.2201 86.9579 86.3647 89.0788C83.5094 91.1996 80.0892 92.4261 76.5368 92.6032C72.9844 92.7803 69.4592 91.9 66.4071 90.0736C63.355 88.2472 60.913 85.5568 59.3899 82.3425C57.8669 79.1282 57.3312 75.5345 57.8505 72.0158C57.9287 71.4862 58.0303 70.9618 58.1545 70.4441C59.3137 65.6152 59.3229 59.8728 55.6409 56.5405V56.5405Z" fill="white"/>
<path d="M57.5893 54.5969C54.266 50.9067 54.5349 45.098 58.9326 42.7911C63.5224 40.3833 68.6108 38.9791 73.8581 38.7186C79.1054 38.4581 84.3079 39.3514 89.1136 41.2928C93.7182 43.1528 94.5611 48.9063 91.6196 52.9075V52.9075C88.6781 56.9086 82.9644 57.4822 78.0428 56.8191C76.9579 56.6729 75.8558 56.6253 74.7498 56.6802C73.6438 56.7351 72.5518 56.8917 71.4868 57.1446C66.6551 58.2919 60.9126 58.287 57.5893 54.5969V54.5969Z" fill="#893405"/>
<path fill-rule="evenodd" clip-rule="evenodd" d="M257.267 46.4606C257.303 46.593 257.321 46.7294 257.322 46.8665V68.1775C257.322 68.4511 257.249 68.7197 257.111 68.9564C256.972 69.1931 256.773 69.3894 256.534 69.5255L238.484 79.8236V100.235C238.484 100.791 238.186 101.304 237.7 101.583L200.023 123.077C199.937 123.125 199.843 123.157 199.749 123.19C199.714 123.201 199.68 123.223 199.643 123.232C199.38 123.301 199.103 123.301 198.839 123.232C198.796 123.221 198.757 123.197 198.716 123.182C198.63 123.151 198.539 123.123 198.457 123.077L160.788 101.583C160.549 101.447 160.35 101.251 160.211 101.014C160.073 100.777 160 100.509 160 100.235V36.3023C160 36.1625 160.02 36.0265 160.055 35.8944C160.067 35.8498 160.094 35.809 160.11 35.7643C160.139 35.6827 160.167 35.5992 160.21 35.5235C160.239 35.473 160.282 35.4322 160.318 35.3856C160.363 35.3234 160.404 35.2593 160.457 35.2049C160.502 35.1603 160.561 35.1272 160.612 35.0884C160.668 35.0418 160.719 34.9913 160.784 34.9544H160.786L179.622 24.2076C179.86 24.0716 180.13 24 180.406 24C180.681 24 180.951 24.0716 181.19 24.2076L200.025 34.9544H200.029C200.092 34.9932 200.145 35.0418 200.202 35.0864C200.253 35.1253 200.309 35.1603 200.354 35.203C200.409 35.2593 200.449 35.3234 200.496 35.3856C200.529 35.4322 200.574 35.473 200.601 35.5235C200.646 35.6012 200.672 35.6827 200.703 35.7643C200.719 35.809 200.746 35.8498 200.758 35.8964C200.794 36.0287 200.813 36.1652 200.813 36.3023V76.2342L216.509 67.2782V46.8646C216.509 46.7286 216.528 46.5907 216.564 46.4606C216.577 46.414 216.603 46.3732 216.619 46.3285C216.65 46.2469 216.677 46.1634 216.72 46.0877C216.75 46.0372 216.793 45.9964 216.826 45.9498C216.873 45.8876 216.913 45.8235 216.967 45.7691C217.012 45.7245 217.069 45.6914 217.12 45.6526C217.179 45.606 217.23 45.5555 217.293 45.5186H217.295L236.132 34.7718C236.371 34.6356 236.641 34.5639 236.916 34.5639C237.191 34.5639 237.462 34.6356 237.7 34.7718L256.536 45.5186C256.603 45.5574 256.653 45.606 256.712 45.6507C256.761 45.6895 256.818 45.7245 256.863 45.7672C256.918 45.8235 256.957 45.8876 257.004 45.9498C257.04 45.9964 257.083 46.0372 257.11 46.0877C257.155 46.1634 257.181 46.2469 257.212 46.3285C257.23 46.3732 257.255 46.414 257.267 46.4606V46.4606ZM254.182 67.2782V49.5566L247.59 53.3169L238.484 58.5126V76.2342L254.184 67.2782H254.182ZM235.346 99.336V81.6028L226.389 86.6722L200.811 101.138V119.039L235.346 99.336ZM163.14 38.9924V99.336L197.671 119.037V101.14L179.631 91.023L179.625 91.0191L179.618 91.0152C179.557 90.9802 179.506 90.9297 179.449 90.887C179.4 90.8482 179.343 90.8171 179.3 90.7743L179.296 90.7685C179.245 90.72 179.21 90.6597 179.167 90.6054C179.128 90.5529 179.081 90.5083 179.049 90.4539L179.047 90.448C179.012 90.3898 178.99 90.3198 178.965 90.2538C178.939 90.1955 178.906 90.1412 178.89 90.079V90.0771C178.871 90.0032 178.867 89.9256 178.859 89.8498C178.851 89.7915 178.836 89.7333 178.836 89.675V89.6711V47.9484L169.731 42.7508L163.14 38.9944V38.9924ZM180.408 27.3502L164.714 36.3023L180.404 45.2544L196.095 36.3004L180.404 27.3502H180.408ZM188.569 83.2188L197.673 78.025V38.9924L191.082 42.7527L181.976 47.9484V86.981L188.569 83.2188ZM236.916 37.9144L221.225 46.8665L236.916 55.8186L252.606 46.8646L236.916 37.9144V37.9144ZM235.346 58.5126L226.24 53.3169L219.649 49.5566V67.2782L228.753 72.472L235.346 76.2342V58.5126ZM199.239 98.4484L222.255 85.4272L233.761 78.9204L218.081 69.9742L200.027 80.2742L183.573 89.6614L199.239 98.4484V98.4484Z" fill="#FF2D20"/>
<defs>
<linearGradient id="paint0_linear_1237_90" x1="550.992" y1="786.861" x2="536.736" y2="-438.373" gradientUnits="userSpaceOnUse">
<stop stop-color="white"/>
<stop offset="1" stop-color="#EEEEEE"/>
</linearGradient>
<linearGradient id="paint1_linear_1237_90" x1="675.951" y1="325.241" x2="599.099" y2="-20.3129" gradientUnits="userSpaceOnUse">
<stop stop-color="white"/>
<stop offset="1" stop-color="#EEEEEE"/>
</linearGradient>
<linearGradient id="paint2_linear_1237_90" x1="762.804" y1="317.47" x2="935.965" y2="180.416" gradientUnits="userSpaceOnUse">
<stop stop-color="white"/>
<stop offset="1" stop-color="#EEEEEE"/>
</linearGradient>
<linearGradient id="paint3_linear_1237_90" x1="353.041" y1="414.007" x2="132.339" y2="208.82" gradientUnits="userSpaceOnUse">
<stop stop-color="white"/>
<stop offset="1" stop-color="#EEEEEE"/>
</linearGradient>
<clipPath id="clip0_1237_90">
<rect width="818" height="545" fill="white" transform="translate(131 24)"/>
</clipPath>
</defs>
</svg>
